<?xml version="1.0" encoding="utf-8"?>
<!-- Generator: Adobe Illustrator 16.0.0, SVG Export Plug-In . SVG Version: 6.00 Build 0)  -->
<!DOCTYPE svg PUBLIC "-//W3C//DTD SVG 1.1//EN" "http://www.w3.org/Graphics/SVG/1.1/DTD/svg11.dtd">
<svg version="1.1" id="Livello_1" xmlns="http://www.w3.org/2000/svg" xmlns:xlink="http://www.w3.org/1999/xlink" x="0px" y="0px"
	 width="283.46px" height="283.46px" viewBox="0 0 283.46 283.46" enable-background="new 0 0 283.46 283.46" xml:space="preserve">
<g>
	<polygon fill="#FFFFFF" points="-1.46,0 282,0 282,283.46 -1.46,283.46 -1.46,0 	"/>
	<path fill-rule="evenodd" clip-rule="evenodd" d="M32.899,94.487h8.59h8.589h8.59h8.589h8.59h8.59h8.589v-8.589v-8.59v-8.59v-8.589
		v-8.59v-8.589v-8.59h-8.589h-8.59h-8.59h-8.589h-8.59h-8.589h-8.59v8.59v8.589v8.59v8.589v8.59v8.59V94.487 M41.489,85.897h8.589
		h8.59h8.589h8.59h8.59v-8.59v-8.59v-8.589v-8.59v-8.589h-8.59h-8.59h-8.589h-8.59h-8.589v8.589v8.59v8.589v8.59V85.897"/>
	<polyline fill-rule="evenodd" clip-rule="evenodd" points="101.617,68.717 110.206,68.717 118.796,68.717 118.796,60.128 
		127.385,60.128 127.385,68.717 135.975,68.717 135.975,60.128 135.975,51.538 144.565,51.538 144.565,42.949 135.975,42.949 
		127.385,42.949 127.385,51.538 118.796,51.538 118.796,42.949 118.796,34.359 110.206,34.359 110.206,42.949 101.617,42.949 
		101.617,51.538 110.206,51.538 110.206,60.128 101.617,60.128 101.617,68.717 	"/>
	<polyline fill-rule="evenodd" clip-rule="evenodd" points="144.565,42.949 153.154,42.949 161.744,42.949 161.744,34.359 
		153.154,34.359 144.565,34.359 144.565,42.949 	"/>
	<path fill-rule="evenodd" clip-rule="evenodd" d="M187.513,94.487h8.59h8.591h8.589h8.59h8.591h8.589h8.59v-8.589v-8.59v-8.59
		v-8.589v-8.59v-8.589v-8.59h-8.59h-8.589h-8.591h-8.59h-8.589h-8.591h-8.59v8.59v8.589v8.59v8.589v8.59v8.59V94.487
		 M196.103,85.897h8.591h8.589h8.59h8.591h8.589v-8.59v-8.59v-8.589v-8.59v-8.589h-8.589h-8.591h-8.59h-8.589h-8.591v8.589v8.59
		v8.589v8.59V85.897"/>
	<polyline fill-rule="evenodd" clip-rule="evenodd" points="153.154,68.717 161.744,68.717 170.334,68.717 170.334,60.128 
		178.924,60.128 178.924,51.538 178.924,42.949 170.334,42.949 161.744,42.949 161.744,51.538 161.744,60.128 153.154,60.128 
		153.154,68.717 	"/>
	<polyline fill-rule="evenodd" clip-rule="evenodd" points="50.078,77.307 58.668,77.307 67.257,77.307 75.847,77.307 
		75.847,68.717 75.847,60.128 75.847,51.538 67.257,51.538 58.668,51.538 50.078,51.538 50.078,60.128 50.078,68.717 50.078,77.307 
			"/>
	<polyline fill-rule="evenodd" clip-rule="evenodd" points="204.693,77.307 213.282,77.307 221.872,77.307 230.463,77.307 
		230.463,68.717 230.463,60.128 230.463,51.538 221.872,51.538 213.282,51.538 204.693,51.538 204.693,60.128 204.693,68.717 
		204.693,77.307 	"/>
	<polyline fill-rule="evenodd" clip-rule="evenodd" points="118.796,94.487 127.385,94.487 127.385,85.897 127.385,77.307 
		127.385,68.717 118.796,68.717 118.796,77.307 118.796,85.897 118.796,94.487 	"/>
	<polyline fill-rule="evenodd" clip-rule="evenodd" points="144.565,85.897 153.154,85.897 153.154,77.307 153.154,68.717 
		144.565,68.717 135.975,68.717 135.975,77.307 144.565,77.307 144.565,85.897 	"/>
	<polyline fill-rule="evenodd" clip-rule="evenodd" points="170.334,94.487 178.924,94.487 178.924,85.897 178.924,77.307 
		178.924,68.717 170.334,68.717 170.334,77.307 161.744,77.307 161.744,85.897 170.334,85.897 170.334,94.487 	"/>
	<polyline fill-rule="evenodd" clip-rule="evenodd" points="101.617,94.487 110.206,94.487 110.206,85.897 110.206,77.307 
		101.617,77.307 101.617,85.897 101.617,94.487 	"/>
	<polyline fill-rule="evenodd" clip-rule="evenodd" points="135.975,111.666 144.565,111.666 144.565,103.077 144.565,94.487 
		144.565,85.897 135.975,85.897 135.975,94.487 135.975,103.077 135.975,111.666 	"/>
	<polyline fill-rule="evenodd" clip-rule="evenodd" points="153.154,94.487 161.744,94.487 161.744,85.897 153.154,85.897 	"/>
	<polyline fill-rule="evenodd" clip-rule="evenodd" points="153.154,111.666 161.744,111.666 170.334,111.666 170.334,103.077 
		170.334,94.487 161.744,94.487 161.744,103.077 153.154,103.077 153.154,111.666 	"/>
	<polyline fill-rule="evenodd" clip-rule="evenodd" points="50.078,128.845 58.668,128.845 58.668,120.256 58.668,111.666 
		67.257,111.666 75.847,111.666 75.847,103.077 67.257,103.077 58.668,103.077 50.078,103.077 41.489,103.077 32.899,103.077 
		32.899,111.666 41.489,111.666 50.078,111.666 50.078,120.256 50.078,128.845 	"/>
	<polyline fill-rule="evenodd" clip-rule="evenodd" points="101.617,249.102 110.206,249.102 118.796,249.102 118.796,240.512 
		127.385,240.512 127.385,231.923 118.796,231.923 110.206,231.923 110.206,223.332 118.796,223.332 118.796,214.742 
		118.796,206.153 127.385,206.153 127.385,214.742 135.975,214.742 135.975,206.153 135.975,197.562 144.565,197.562 
		144.565,188.973 135.975,188.973 127.385,188.973 127.385,180.384 118.796,180.384 110.206,180.384 110.206,171.794 
		101.617,171.794 101.617,163.204 110.206,163.204 110.206,154.614 118.796,154.614 127.385,154.614 127.385,146.025 
		118.796,146.025 118.796,137.435 127.385,137.435 127.385,146.025 135.975,146.025 135.975,137.435 135.975,128.845 
		144.565,128.845 153.154,128.845 153.154,120.256 153.154,111.666 144.565,111.666 144.565,120.256 135.975,120.256 
		127.385,120.256 127.385,128.845 118.796,128.845 118.796,120.256 118.796,111.666 127.385,111.666 127.385,103.077 
		118.796,103.077 110.206,103.077 101.617,103.077 93.027,103.077 84.438,103.077 84.438,111.666 93.027,111.666 101.617,111.666 
		110.206,111.666 110.206,120.256 110.206,128.845 110.206,137.435 110.206,146.025 101.617,146.025 101.617,137.435 
		93.027,137.435 84.438,137.435 84.438,146.025 93.027,146.025 93.027,154.614 84.438,154.614 75.847,154.614 75.847,163.204 
		84.438,163.204 93.027,163.204 93.027,171.794 84.438,171.794 75.847,171.794 75.847,180.384 84.438,180.384 93.027,180.384 
		101.617,180.384 101.617,188.973 101.617,197.562 110.206,197.562 110.206,206.153 101.617,206.153 101.617,214.742 
		101.617,223.332 101.617,231.923 101.617,240.512 101.617,249.102 	"/>
	<polyline fill-rule="evenodd" clip-rule="evenodd" points="170.334,120.256 178.924,120.256 187.513,120.256 187.513,111.666 
		187.513,103.077 178.924,103.077 178.924,111.666 170.334,111.666 170.334,120.256 	"/>
	<polyline fill-rule="evenodd" clip-rule="evenodd" points="204.693,146.025 213.282,146.025 213.282,137.435 213.282,128.845 
		204.693,128.845 204.693,120.256 204.693,111.666 204.693,103.077 196.103,103.077 196.103,111.666 196.103,120.256 
		187.513,120.256 187.513,128.845 196.103,128.845 196.103,137.435 204.693,137.435 204.693,146.025 	"/>
	<polyline fill-rule="evenodd" clip-rule="evenodd" points="213.282,111.666 221.872,111.666 221.872,103.077 213.282,103.077 	"/>
	<polyline fill-rule="evenodd" clip-rule="evenodd" points="239.052,171.794 247.642,171.794 247.642,163.204 247.642,154.614 
		239.052,154.614 239.052,146.025 247.642,146.025 247.642,137.435 247.642,128.845 247.642,120.256 239.052,120.256 
		239.052,111.666 239.052,103.077 230.463,103.077 230.463,111.666 230.463,120.256 230.463,128.845 239.052,128.845 
		239.052,137.435 230.463,137.435 221.872,137.435 221.872,146.025 230.463,146.025 230.463,154.614 230.463,163.204 
		239.052,163.204 239.052,171.794 	"/>
	<polyline fill-rule="evenodd" clip-rule="evenodd" points="84.438,128.845 93.027,128.845 101.617,128.845 101.617,120.256 
		93.027,120.256 84.438,120.256 84.438,128.845 	"/>
	<polyline fill-rule="evenodd" clip-rule="evenodd" points="161.744,128.845 170.334,128.845 170.334,120.256 161.744,120.256 	"/>
	<polyline fill-rule="evenodd" clip-rule="evenodd" points="213.282,128.845 221.872,128.845 221.872,120.256 213.282,120.256 	"/>
	<polyline fill-rule="evenodd" clip-rule="evenodd" points="41.489,137.435 50.078,137.435 50.078,128.845 41.489,128.845 	"/>
	<polyline fill-rule="evenodd" clip-rule="evenodd" points="50.078,154.614 58.668,154.614 67.257,154.614 67.257,146.025 
		75.847,146.025 75.847,137.435 75.847,128.845 67.257,128.845 58.668,128.845 58.668,137.435 58.668,146.025 50.078,146.025 
		50.078,154.614 	"/>
	<polyline fill-rule="evenodd" clip-rule="evenodd" points="161.744,146.025 170.334,146.025 170.334,137.435 161.744,137.435 	"/>
	<polyline fill-rule="evenodd" clip-rule="evenodd" points="187.513,146.025 196.103,146.025 196.103,137.435 187.513,137.435 	"/>
	<polyline fill-rule="evenodd" clip-rule="evenodd" points="32.899,180.384 41.489,180.384 41.489,171.794 41.489,163.204 
		41.489,154.614 41.489,146.025 32.899,146.025 32.899,154.614 32.899,163.204 32.899,171.794 32.899,180.384 	"/>
	<path fill-rule="evenodd" clip-rule="evenodd" d="M187.513,249.102h8.59h8.591h8.589h8.59h8.591h8.589h8.59v-8.59v-8.589v-8.591
		v-8.59v-8.589v-8.591v-8.59h-8.59h-8.589v-8.589v-8.59h-8.591v8.59h-8.59v-8.59h-8.589h-8.591h-8.59h-8.589v-8.59h8.589v-8.59
		h-8.589v-8.589h-8.59v8.589h-8.59h-8.59v-8.589h-8.589h-8.59v8.589h8.59v8.59h-8.59v8.59v8.59h8.59v-8.59h8.589v-8.59h8.59h8.59
		v8.59v8.59h-8.59v8.589h8.59v8.59h-8.59h-8.59v8.591h8.59v8.589h8.59v8.59v8.591h-8.59v8.589h8.59h8.59h8.589V249.102
		 M178.924,206.153h8.589h8.59h8.591v-8.591v-8.59v-8.589h-8.591h-8.59h-8.589v8.589v8.59V206.153 M221.872,206.153h8.591h8.589
		v-8.591h-8.589h-8.591V206.153 M221.872,240.512h8.591h8.589v-8.589v-8.591h-8.589v8.591h-8.591v-8.591v-8.59h-8.59v8.59h-8.589
		v8.591h8.589h8.59V240.512 M187.513,231.923h8.59v-8.591h-8.59V231.923"/>
	<polyline fill-rule="evenodd" clip-rule="evenodd" points="213.282,171.794 221.872,171.794 221.872,163.204 221.872,154.614 
		221.872,146.025 213.282,146.025 213.282,154.614 213.282,163.204 213.282,171.794 	"/>
	<polyline fill-rule="evenodd" clip-rule="evenodd" points="196.103,163.204 204.693,163.204 204.693,154.614 196.103,154.614 	"/>
	<polyline fill-rule="evenodd" clip-rule="evenodd" points="58.668,171.794 67.257,171.794 67.257,163.204 58.668,163.204 	"/>
	<polyline fill-rule="evenodd" clip-rule="evenodd" points="153.154,180.384 161.744,180.384 161.744,171.794 153.154,171.794 	"/>
	<path fill-rule="evenodd" clip-rule="evenodd" d="M32.899,249.102h8.59h8.589h8.59h8.589h8.59h8.59h8.589v-8.59v-8.589v-8.591
		v-8.59v-8.589v-8.591v-8.59h-8.589h-8.59h-8.59h-8.589h-8.59h-8.589h-8.59v8.59v8.591v8.589v8.59v8.591v8.589V249.102
		 M41.489,240.512h8.589h8.59h8.589h8.59h8.59v-8.589v-8.591v-8.59v-8.589v-8.591h-8.59h-8.59h-8.589h-8.59h-8.589v8.591v8.589v8.59
		v8.591V240.512"/>
	<polyline fill-rule="evenodd" clip-rule="evenodd" points="187.513,197.562 196.103,197.562 196.103,188.973 187.513,188.973 	"/>
	<polyline fill-rule="evenodd" clip-rule="evenodd" points="50.078,231.923 58.668,231.923 67.257,231.923 75.847,231.923 
		75.847,223.332 75.847,214.742 75.847,206.153 67.257,206.153 58.668,206.153 50.078,206.153 50.078,214.742 50.078,223.332 
		50.078,231.923 	"/>
	<polyline fill-rule="evenodd" clip-rule="evenodd" points="135.975,249.102 144.565,249.102 144.565,240.512 153.154,240.512 
		153.154,231.923 161.744,231.923 161.744,223.332 161.744,214.742 153.154,214.742 144.565,214.742 135.975,214.742 
		135.975,223.332 144.565,223.332 144.565,231.923 135.975,231.923 135.975,240.512 135.975,249.102 	"/>
	<polyline fill-rule="evenodd" clip-rule="evenodd" points="153.154,249.102 161.744,249.102 161.744,240.512 153.154,240.512 	"/>
</g>
</svg>
